<?xml version="1.0" encoding="UTF-8" standalone="no"?>
<!-- Created with Inkscape (http://www.inkscape.org/) -->

<svg
   xmlns:dc="http://purl.org/dc/elements/1.1/"
   xmlns:cc="http://creativecommons.org/ns#"
   xmlns:rdf="http://www.w3.org/1999/02/22-rdf-syntax-ns#"
   xmlns:svg="http://www.w3.org/2000/svg"
   xmlns="http://www.w3.org/2000/svg"
   xmlns:xlink="http://www.w3.org/1999/xlink"
   xmlns:sodipodi="http://sodipodi.sourceforge.net/DTD/sodipodi-0.dtd"
   xmlns:inkscape="http://www.inkscape.org/namespaces/inkscape"
   width="128"
   height="128"
   id="svg2"
   version="1.1"
   inkscape:version="0.48+devel r9750"
   inkscape:export-filename="/Users/jeffw/Source/eclipse/workspace-codeshelf/CodeShelf/resources/images/codeshelf-logo.png"
   inkscape:export-xdpi="360"
   inkscape:export-ydpi="360"
   sodipodi:docname="codeshelf-logo.svg">
  <defs
     id="defs4">
    <linearGradient
       id="linearGradient6212">
      <stop
         style="stop-color:#0651f1;stop-opacity:1;"
         offset="0"
         id="stop6214" />
      <stop
         style="stop-color:#0651f1;stop-opacity:0.271186;"
         offset="1"
         id="stop6216" />
    </linearGradient>
    <filter
       inkscape:collect="always"
       id="filter6086"
       x="-0.528385"
       width="2.05677"
       y="-0.134755"
       height="1.26951">
      <feGaussianBlur
         inkscape:collect="always"
         stdDeviation="1.99744"
         id="feGaussianBlur6088" />
    </filter>
    <filter
       inkscape:collect="always"
       id="filter6090"
       x="-1.0475"
       width="3.09499"
       y="-0.267145"
       height="1.53429">
      <feGaussianBlur
         inkscape:collect="always"
         stdDeviation="1.99744"
         id="feGaussianBlur6092" />
    </filter>
    <filter
       inkscape:collect="always"
       id="filter6094"
       x="-0.896777"
       width="2.79355"
       y="-0.252464"
       height="1.50493">
      <feGaussianBlur
         inkscape:collect="always"
         stdDeviation="1.99744"
         id="feGaussianBlur6096" />
    </filter>
    <filter
       inkscape:collect="always"
       id="filter6098"
       x="-0.543713"
       width="2.08743"
       y="-0.134271"
       height="1.26854">
      <feGaussianBlur
         inkscape:collect="always"
         stdDeviation="1.99744"
         id="feGaussianBlur6100" />
    </filter>
    <filter
       inkscape:collect="always"
       id="filter6102"
       x="-0.361409"
       width="1.72282"
       y="-0.0892505"
       height="1.1785">
      <feGaussianBlur
         inkscape:collect="always"
         stdDeviation="1.99744"
         id="feGaussianBlur6104" />
    </filter>
    <filter
       inkscape:collect="always"
       id="filter6106"
       x="-0.315996"
       width="1.63199"
       y="-0.0821097"
       height="1.16422">
      <feGaussianBlur
         inkscape:collect="always"
         stdDeviation="1.99744"
         id="feGaussianBlur6108" />
    </filter>
    <filter
       inkscape:collect="always"
       id="filter6190">
      <feGaussianBlur
         inkscape:collect="always"
         stdDeviation="0.461935"
         id="feGaussianBlur6192" />
    </filter>
    <linearGradient
       inkscape:collect="always"
       xlink:href="#linearGradient6212"
       id="linearGradient6218"
       x1="15.2148"
       y1="65.0997"
       x2="125.101"
       y2="65.0997"
       gradientUnits="userSpaceOnUse" />
    <filter
       inkscape:collect="always"
       id="filter4025">
      <feGaussianBlur
         inkscape:collect="always"
         stdDeviation="2.13773"
         id="feGaussianBlur4027" />
    </filter>
  </defs>
  <sodipodi:namedview
     id="base"
     pagecolor="#ffffff"
     bordercolor="#666666"
     borderopacity="1.0"
     inkscape:pageopacity="0.0"
     inkscape:pageshadow="2"
     inkscape:zoom="4.54688"
     inkscape:cx="74.2365"
     inkscape:cy="64.0001"
     inkscape:document-units="px"
     inkscape:current-layer="layer1"
     showgrid="false"
     inkscape:snap-global="true"
     inkscape:window-width="1198"
     inkscape:window-height="800"
     inkscape:window-x="24"
     inkscape:window-y="13"
     inkscape:window-maximized="0" />
  <metadata
     id="metadata7">
    <rdf:RDF>
      <cc:Work
         rdf:about="">
        <dc:format>image/svg+xml</dc:format>
        <dc:type
           rdf:resource="http://purl.org/dc/dcmitype/StillImage" />
        <dc:title></dc:title>
      </cc:Work>
    </rdf:RDF>
  </metadata>
  <g
     inkscape:label="Layer 1"
     inkscape:groupmode="layer"
     id="layer1"
     transform="translate(0,-924.362)">
    <path
       sodipodi:type="arc"
       style="fill:url(#linearGradient6218);fill-opacity:1;stroke:none;filter:url(#filter4025);opacity:1"
       id="path6194"
       sodipodi:cx="70.1581"
       sodipodi:cy="65.0997"
       sodipodi:rx="53.4433"
       sodipodi:ry="53.4433"
       d="m 123.601,65.0997 c 0,29.5159 -23.927,53.4433 -53.4429,53.4433 -29.5159,0 -53.4433,-23.9274 -53.4433,-53.4433 0,-29.5159 23.9274,-53.4433 53.4433,-53.4433 29.5159,0 53.4429,23.9274 53.4429,53.4433 z"
       transform="matrix(0,-1,1,0,5.0584,1059.62)" />
    <path
       style="fill:#000000;stroke:black;stroke-opacity:1;stroke-width:2;stroke-linejoin:miter;stroke-linecap:butt;fill-rule:evenodd;fill-opacity:1;stroke-miterlimit:4;stroke-dasharray:none"
       d="m 8.88163,84.3755 c -0.73371,-0.034 -1.19946,0.574 -1.82857,0.7837 -0.14738,0.049 -0.61202,0 -0.78367,0 -0.0871,0 -0.26123,0.087 -0.26123,0 0,-0.4953 1.0827,-0.2054 1.30613,-0.2612 1.09762,-0.2744 1.83475,-0.6554 2.87351,-1.0449 1.1382,-0.4269 0.5583,-0.078 1.8285,-0.7837 0.4439,-0.2466 0.852,-0.5566 1.3061,-0.7837 0.4195,-0.2097 0.9041,-0.2812 1.3062,-0.5224 0.4781,-0.2869 0.8357,-0.7456 1.3061,-1.0449 0.4928,-0.3136 1.053,-0.5068 1.5673,-0.7837 1.2363,-0.6657 2.4532,-1.3674 3.6572,-2.0898 1.4088,-0.8453 2.7635,-1.7793 4.1796,-2.6122 0.7727,-0.4546 1.5983,-0.8191 2.351,-1.3062 0.7311,-0.473 1.3784,-1.0652 2.0898,-1.5673 0.7695,-0.5432 1.5673,-1.0449 2.351,-1.5674 2.2896,-1.5264 4.64,-2.9805 6.7918,-4.702 1.2538,-1.003 2.4381,-2.0898 3.6572,-3.1347 5.6372,-4.8319 -1.7281,1.5623 3.3959,-3.1347 1.1613,-1.0645 1.8823,-1.4008 2.8735,-2.6122 0.3976,-0.486 0.6756,-1.0596 1.0449,-1.5674 0.3279,-0.4509 0.7251,-0.8493 1.0449,-1.3061 0.2911,-0.416 0.5111,-0.8778 0.7836,-1.3061 0.3372,-0.5298 0.7286,-1.025 1.0449,-1.5674 0.2944,-0.5045 0.4894,-1.0628 0.7837,-1.5673 0.3164,-0.5424 0.7078,-1.0376 1.0449,-1.5674 1.249,-1.9627 0.367,-0.6728 1.5674,-2.8734 1.0978,-2.0127 0.5409,-0.6155 1.5673,-2.8735 0.3881,-0.8538 0.6255,-1.7734 1.0449,-2.6123 0.2271,-0.4541 0.5566,-0.8519 0.7837,-1.3061 0.2097,-0.4194 0.3483,-0.8707 0.5224,-1.3061 0.1742,-0.4354 0.3742,-0.8613 0.5225,-1.3061 0.1135,-0.3406 0.1477,-0.7043 0.2612,-1.0449 0.1483,-0.4449 0.3877,-0.857 0.5225,-1.3061 0.1275,-0.4253 0.1053,-0.8904 0.2612,-1.3062 0.7116,-1.8976 0.4577,0.4532 0.7837,-1.8285 0.037,-0.2586 0,-0.5225 0,-0.7837 0,-0.4354 0,-0.8708 0,-1.3061 0,-1.3062 0,-2.6123 0,-3.9184 0,-0.4354 0,-0.8707 0,-1.3061 0,-0.2612 -0.083,-0.5359 0,-0.7837 0.039,-0.1168 0.2222,-0.1444 0.2612,-0.2612 0.055,-0.1652 -0.055,-0.3573 0,-0.5225 0.039,-0.1168 0.2223,-0.1444 0.2612,-0.2612 0.1306,-0.3918 -0.1306,-0.9143 0,-1.3061 0.039,-0.1168 0.2062,-0.1511 0.2612,-0.2612 0.04,-0.08 0,-0.6661 0,-0.7837 0,-0.5225 0,-1.0449 0,-1.5674 0,-0.087 0.062,-0.1996 0,-0.2612 -0.061,-0.062 -0.1996,0.062 -0.2612,0 -0.011,-0.011 0,-0.949 0,-1.0449"
       id="path3069" />
    <path
       style="fill:none;stroke:#020308;stroke-width:3;stroke-linecap:round;stroke-linejoin:round;stroke-miterlimit:4;stroke-opacity:1;stroke-dasharray:none;filter:url(#filter6190)"
       d="m 20.6367,1032.77 c 38.1388,-16.46 33.9592,-70.008 33.9592,-70.008 0,0 -1.8285,105.538 15.9347,77.318 17.7633,-28.21 52.7664,-30.04 52.7664,-30.04"
       id="path4231"
       inkscape:connector-curvature="0"
       transform="matrix(1.13519,0,0,1.08989,-7.74989,-88.6947)" />
    <path
       sodipodi:type="arc"
       style="opacity:1;fill:none;stroke:#fb3508;stroke-width:4.3;stroke-miterlimit:4;stroke-opacity:1;stroke-dasharray:none;filter:url(#filter6090)"
       id="path5934"
       sodipodi:cx="54.7629"
       sodipodi:cy="37.6082"
       sodipodi:rx="12.5361"
       sodipodi:ry="12.5361"
       d="m 62.7229,27.9235 c 5.3487,4.3962 6.1208,12.296 1.7247,17.6447 -0.083,0.1013 -0.1683,0.2014 -0.2547,0.3001"
       transform="translate(0.219931,924.362)"
       sodipodi:start="5.40035"
       sodipodi:end="7.00255"
       sodipodi:open="true" />
    <path
       sodipodi:open="true"
       sodipodi:end="4.10152"
       sodipodi:start="2.37242"
       transform="translate(0,924.362)"
       d="m 45.7559,46.3276 c -4.8156,-4.9745 -4.6868,-12.9108 0.2876,-17.7264 0.4756,-0.4604 0.9868,-0.8823 1.529,-1.2619"
       sodipodi:ry="12.5361"
       sodipodi:rx="12.5361"
       sodipodi:cy="37.6082"
       sodipodi:cx="54.7629"
       id="path5980"
       style="opacity:1;fill:none;stroke:#fb3508;stroke-width:4.3;stroke-miterlimit:4;stroke-opacity:1;stroke-dasharray:none;filter:url(#filter6094)"
       sodipodi:type="arc" />
    <path
       sodipodi:type="arc"
       style="opacity:1;fill:none;stroke:#fb3508;stroke-width:4.3;stroke-miterlimit:4;stroke-opacity:1;stroke-dasharray:none;filter:url(#filter6086)"
       id="path5982"
       sodipodi:cx="54.323"
       sodipodi:cy="38.0481"
       sodipodi:rx="24.8522"
       sodipodi:ry="24.8522"
       d="m 70.1032,18.8487 c 10.6036,8.7152 12.1344,24.3761 3.4192,34.9796 -0.1652,0.201 -0.3336,0.3994 -0.505,0.5951"
       transform="translate(0,924.362)"
       sodipodi:start="5.40035"
       sodipodi:end="0.719365"
       sodipodi:open="true" />
    <path
       sodipodi:open="true"
       sodipodi:end="4.01106"
       sodipodi:start="2.40384"
       transform="translate(0,924.362)"
       d="M 35.9328,54.7644 C 26.7007,44.6077 27.4501,28.89 37.6068,19.6579 37.83,19.455 38.057,19.2561 38.2875,19.0614"
       sodipodi:ry="24.8522"
       sodipodi:rx="24.8522"
       sodipodi:cy="38.0481"
       sodipodi:cx="54.323"
       id="path5984"
       style="opacity:1;fill:none;stroke:#fb3508;stroke-width:4.3;stroke-miterlimit:4;stroke-opacity:1;stroke-dasharray:none;filter:url(#filter6098)"
       sodipodi:type="arc" />
    <path
       sodipodi:type="arc"
       style="opacity:1;fill:none;stroke:#fb3508;stroke-width:4.3;stroke-miterlimit:4;stroke-opacity:1;stroke-dasharray:none;filter:url(#filter6102)"
       id="path6082"
       sodipodi:cx="54.7629"
       sodipodi:cy="37.8282"
       sodipodi:rx="37.3883"
       sodipodi:ry="37.3883"
       d="M 27.0962,62.9766 C 13.2072,47.6967 14.3347,24.0506 29.6145,10.1615 29.9505,9.85619 30.2919,9.55699 30.6387,9.26409"
       transform="translate(0,924.362)"
       sodipodi:start="2.40384"
       sodipodi:end="4.01106"
       sodipodi:open="true" />
    <path
       sodipodi:open="true"
       sodipodi:end="7.14237"
       sodipodi:start="5.34879"
       transform="translate(0,924.362)"
       d="m 76.983,7.75904 c 16.6067,12.27176 20.1209,35.68246 7.8491,52.28926 -1.6518,2.2352 -3.5477,4.2794 -5.6526,6.0945"
       sodipodi:ry="37.3883"
       sodipodi:rx="37.3883"
       sodipodi:cy="37.8282"
       sodipodi:cx="54.7629"
       id="path6084"
       style="opacity:1;fill:none;stroke:#fb3508;stroke-width:4.3;stroke-miterlimit:4;stroke-opacity:1;stroke-dasharray:none;filter:url(#filter6106)"
       sodipodi:type="arc" />
  </g>
</svg>
